<?xml version="1.0" encoding="UTF-8" standalone="no"?><!DOCTYPE svg PUBLIC "-//W3C//DTD SVG 1.1//EN" "http://www.w3.org/Graphics/SVG/1.1/DTD/svg11.dtd"><svg width="100%" height="100%" viewBox="0 0 112 112" version="1.1" xmlns="http://www.w3.org/2000/svg" xmlns:xlink="http://www.w3.org/1999/xlink" xml:space="preserve" xmlns:serif="http://www.serif.com/" style="fill-rule:evenodd;clip-rule:evenodd;stroke-linejoin:round;stroke-miterlimit:1.41421;"><path d="M16.792,50.375l0,61.569l78.361,0l0,-61.569m-72.764,0l0,-16.792c0,-18.47 15.112,-33.583 33.583,-33.583c18.471,0 33.584,15.113 33.584,33.583l0,16.792l-11.195,0l0,-16.792c0,-12.314 -10.075,-22.389 -22.389,-22.389c-12.314,0 -22.389,10.075 -22.389,22.389l0,16.792" style="fill:none;"/><clipPath id="_clip1"><path d="M16.792,50.375l0,61.569l78.361,0l0,-61.569m-72.764,0l0,-16.792c0,-18.47 15.112,-33.583 33.583,-33.583c18.471,0 33.584,15.113 33.584,33.583l0,16.792l-11.195,0l0,-16.792c0,-12.314 -10.075,-22.389 -22.389,-22.389c-12.314,0 -22.389,10.075 -22.389,22.389l0,16.792" clip-rule="nonzero"/></clipPath><g clip-path="url(#_clip1)"><path d="M153.037,55.972l-97.065,-97.064l-97.064,97.064l97.064,97.065l97.065,-97.065Z" style="fill:url(#_Linear2);"/></g><defs><linearGradient id="_Linear2" x1="0" y1="0" x2="1" y2="0" gradientUnits="userSpaceOnUse" gradientTransform="matrix(97.0647,97.0647,-97.0647,97.0647,7.43987,7.43987)"><stop offset="0" style="stop-color:#0040bd;stop-opacity:1"/><stop offset="0.55" style="stop-color:#006daa;stop-opacity:1"/><stop offset="1" style="stop-color:#00d4ff;stop-opacity:1"/></linearGradient></defs></svg>